HIERARCHY
ROOT Hips
{
  OFFSET 45.7534 53.3363 0.386181
  CHANNELS 6 Xposition Yposition Zposition Zrotation Xrotation Yrotation
  JOINT spine
  {
    OFFSET 0 8.30104 0.477351
    CHANNELS 3 Zrotation Xrotation Yrotation
    JOINT spine1
    {
      OFFSET 0 10.4565 0
      CHANNELS 3 Zrotation Xrotation Yrotation
      JOINT spine2
      {
        OFFSET 0 10.0192 0
        CHANNELS 3 Zrotation Xrotation Yrotation
        JOINT Neck
        {
          OFFSET 0 25.7235 1.22641
          CHANNELS 3 Zrotation Xrotation Yrotation
          JOINT Head
          {
            OFFSET 0 7.77175 0
            CHANNELS 3 Zrotation Xrotation Yrotation
            End Site
            {
              OFFSET 0 18.812 -6.20394
            }
          }
        }
        JOINT RightShoulder
        {
          OFFSET -4.2188 10.82 -0.587439
          CHANNELS 3 Zrotation Xrotation Yrotation
          JOINT RightArm
          {
            OFFSET 0 14.1914 0
            CHANNELS 3 Zrotation Xrotation Yrotation
            JOINT RightArmRoll
            {
              OFFSET 0 7.16409 0
              CHANNELS 3 Zrotation Xrotation Yrotation
              JOINT RightForeArm
              {
                OFFSET 0 20.8665 0
                CHANNELS 3 Zrotation Xrotation Yrotation
                JOINT RightForeArmRoll
                {
                  OFFSET 0 8.03921 0
                  CHANNELS 3 Zrotation Xrotation Yrotation
                  JOINT RightHand
                  {
                    OFFSET 0 16.133 0
                    CHANNELS 3 Zrotation Xrotation Yrotation
                    End Site
                    {
                      OFFSET 0 0 0
                    }
                  }
                }
              }
            }
          }
        }
        JOINT LeftShoulder
        {
          OFFSET 4.2188 10.82 -0.587439
          CHANNELS 3 Zrotation Xrotation Yrotation
          JOINT LeftArm
          {
            OFFSET 0 14.1914 0
            CHANNELS 3 Zrotation Xrotation Yrotation
            JOINT LeftArmRoll
            {
              OFFSET 0 7.16408 0
              CHANNELS 3 Zrotation Xrotation Yrotation
              JOINT LeftForeArm
              {
                OFFSET 0 20.8665 0
                CHANNELS 3 Zrotation Xrotation Yrotation
                JOINT LeftForeArmRoll
                {
                  OFFSET 0 8.03921 0
                  CHANNELS 3 Zrotation Xrotation Yrotation
                  JOINT LeftHand
                  {
                    OFFSET 0 16.133 0
                    CHANNELS 3 Zrotation Xrotation Yrotation
                    End Site
                    {
                      OFFSET 0 0 0
                    }
                  }
                }
              }
            }
          }
        }
      }
    }
  }
  JOINT RightUpLeg
  {
    OFFSET -7.35773 -1.34921 -1.13182
    CHANNELS 3 Zrotation Xrotation Yrotation
    JOINT RightUpLegRoll
    {
      OFFSET 0 18.9168 0
      CHANNELS 3 Zrotation Xrotation Yrotation
      JOINT RightLeg
      {
        OFFSET 0 -23.4256 0
        CHANNELS 3 Zrotation Xrotation Yrotation
        JOINT RightLegRoll
        {
          OFFSET 0 23.5023 0
          CHANNELS 3 Zrotation Xrotation Yrotation
          JOINT RightFoot
          {
            OFFSET 0 19.5617 0
            CHANNELS 3 Zrotation Xrotation Yrotation
            JOINT RightToeBase
            {
              OFFSET 0 16.3526 0
              CHANNELS 3 Zrotation Xrotation Yrotation
              End Site
              {
                OFFSET 0.00693125 7.91944 -0.912836
              }
            }
          }
        }
      }
    }
  }
  JOINT LeftUpLeg
  {
    OFFSET 7.35773 -1.34921 -1.13182
    CHANNELS 3 Zrotation Xrotation Yrotation
    JOINT LeftUpLegRoll
    {
      OFFSET 0 18.9169 0
      CHANNELS 3 Zrotation Xrotation Yrotation
      JOINT LeftLeg
      {
        OFFSET 0 23.4255 0
        CHANNELS 3 Zrotation Xrotation Yrotation
        JOINT LeftLegRoll
        {
          OFFSET 0 23.7195 0
          CHANNELS 3 Zrotation Xrotation Yrotation
          JOINT LeftFoot
          {
            OFFSET 0 19.3444 0
            CHANNELS 3 Zrotation Xrotation Yrotation
            JOINT LeftToeBase
            {
              OFFSET 0 16.3526 0
              CHANNELS 3 Zrotation Xrotation Yrotation
              End Site
              {
                OFFSET -0.0310629 7.91943 -0.912837
              }
            }
          }
        }
      }
    }
  }
}
MOTION
Frames: 5
Frame Time: 0.00208333
45.0001 53.6476 1.02857 -0.216016 -1.53568 3.84489 0.492232 3.1993 0.087447 0.981394 10.4016 0.0824767 0.983814 12.0466 0.0660748 3.11292 -3.04302 -1.30477 -5.13021 -12.4006 -1.96896 65.8193 -3.90709 -2.94743 103.883 38.2025 18.2422 3.87892e-006 -5.28352e-006 -3.65298e-006 2.4852 15.7929 0.264376 -3.27778e-006 2.03047e-006 -3.00108 8.02907 -4.95142 0.697661 -57.737 -1.36117 0.734014 -109.451 34.0487 -9.85777 -1.37161e-014 -7.95139e-015 -4.77083e-015 -3.64714 14.1809 1.33247 -8.10474e-006 5.61481e-006 3.007 -8.02911 -4.95144 -0.697662 91.0318 69.5416 95.0387 180 7.01503e-015 178.748 -19.5903 77.0468 21.3995 5.18568e-006 -3.51248e-006 2.15343 -25.5671 73.1176 25.347 8.20386 26.3653 -3.51342 -87.0733 72.7359 -98.1275 4.54188e-006 -4.6773e-006 -1.23013 156.995 -78.0879 153.894 -1.6041e-006 -1.61639e-006 -2.42021 20.8513 69.5955 -21.0021 -8.31914 27.9137 3.56655 
45.0071 53.6486 1.02214 -0.210176 -1.63852 3.87069 0.492732 3.19475 0.0851994 0.982255 10.3925 0.0778711 0.984732 12.0374 0.061452 3.12337 -2.97553 -1.30868 -5.15032 -12.3732 -1.9725 65.8809 -3.90457 -2.95055 103.803 38.045 18.2611 3.87892e-006 -5.28352e-006 -3.65298e-006 2.57347 15.8907 0.234602 -3.27778e-006 2.03047e-006 -3.00108 8.02907 -4.95142 0.697661 -57.771 -1.33592 0.721843 -109.425 33.9703 -9.89426 -4.17448e-015 -3.18055e-015 -1.59028e-015 -3.66572 14.1388 1.33254 -8.10474e-006 5.61481e-006 3.007 -8.02911 -4.95144 -0.697662 91.2917 69.5205 94.7546 180 7.01503e-015 178.747 -19.6367 77.0475 21.456 5.18568e-006 -3.51248e-006 2.15263 -25.5308 73.1053 25.3256 8.20413 26.3689 -3.5134 -87.3002 72.7854 -97.868 4.54188e-006 -4.6773e-006 -1.23022 156.916 -78.1259 153.812 -1.6041e-006 -1.61639e-006 -2.41652 20.7438 69.4868 -20.8944 -8.32259 27.9586 3.56811 
45.0076 53.6538 1.01508 -0.20511 -1.74168 3.89642 0.49314 3.19051 0.0831118 0.983026 10.384 0.0736149 0.985555 12.0289 0.0571777 3.13687 -2.91179 -1.31313 -5.17133 -12.3413 -1.97627 65.9433 -3.90205 -2.95373 103.722 37.8949 18.2825 3.87892e-006 -5.28352e-006 -3.65298e-006 2.65651 15.9733 0.206775 -3.27778e-006 2.03047e-006 -3.00108 8.02907 -4.95142 0.697661 -57.8017 -1.31127 0.70969 -109.404 33.8933 -9.92851 -7.35503e-015 -3.18055e-015 -3.18055e-015 -3.68252 14.096 1.33247 -8.10474e-006 5.61481e-006 3.007 -8.02911 -4.95144 -0.697662 91.5518 69.4992 94.4708 180 7.01503e-015 178.746 -19.6822 77.0473 21.5112 5.18568e-006 -3.51248e-006 2.15173 -25.4951 73.0935 25.3051 8.20438 26.3725 -3.5134 -87.5362 72.8334 -97.601 4.54188e-006 -4.6773e-006 -1.23052 156.84 -78.1591 153.732 -1.6041e-006 -1.61639e-006 -2.41316 20.6482 69.3895 -20.799 -8.32564 27.9981 3.56949 
45.016 53.6571 1.00369 -0.200895 -1.84524 3.92198 0.493432 3.18664 0.0812064 0.983671 10.3762 0.0697588 0.986247 12.0212 0.0533035 3.15386 -2.85213 -1.31821 -5.19338 -12.3043 -1.9803 66.0068 -3.89948 -2.95695 103.64 37.7534 18.3066 3.87892e-006 -5.28352e-006 -3.65298e-006 2.73361 16.0386 0.181182 -3.27778e-006 2.03047e-006 -3.00108 8.02907 -4.95142 0.697661 -57.8286 -1.28733 0.697583 -109.389 33.8178 -9.96018 -2.68359e-014 -9.54166e-015 -4.77083e-015 -3.69736 14.0528 1.33227 -8.10474e-006 5.61481e-006 3.007 -8.02911 -4.95144 -0.697662 91.8121 69.4781 94.1877 180 7.01503e-015 178.745 -19.7267 77.0461 21.5652 5.18568e-006 -3.51248e-006 2.15072 -25.46 73.0823 25.2854 8.20463 26.376 -3.51343 -87.7824 72.8796 -97.3255 4.54188e-006 -4.6773e-006 -1.23106 156.766 -78.1866 153.652 -1.6041e-006 -1.61639e-006 -2.41016 20.5656 69.3056 -20.7175 -8.32822 28.0315 3.57066 
45.0226 53.6511 1.00172 -0.197356 -1.94975 3.94775 0.493611 3.18329 0.0795097 0.984221 10.3695 0.0663523 0.986838 12.0145 0.0498776 3.1748 -2.79775 -1.32378 -5.21711 -12.2616 -1.98455 66.0717 -3.89715 -2.96039 103.557 37.6195 18.3328 3.87892e-006 -5.28352e-006 -3.65298e-006 2.80525 16.0881 0.157455 -3.27778e-006 2.03047e-006 -3.00108 8.02907 -4.95142 0.697661 -57.8517 -1.26362 0.685215 -109.379 33.744 -9.9893 -4.96962e-015 -1.59028e-015 -3.18055e-015 -3.71009 14.0087 1.33188 -8.10474e-006 5.61481e-006 3.007 -8.02911 -4.95144 -0.697662 92.0745 69.4567 93.903 180 7.01502e-015 178.744 -19.7706 77.0442 21.6182 5.18568e-006 -3.51248e-006 2.14957 -25.4253 73.0715 25.2663 8.20489 26.3796 -3.51348 -88.0395 72.9247 -97.0404 4.54188e-006 -4.6773e-006 -1.23181 156.694 -78.2094 153.573 -1.6041e-006 -1.61639e-006 -2.40746 20.4932 69.2325 -20.6471 -8.33043 28.06 3.57165 
